# xmcd
#
# Track frame offsets:
#	150
#	19357
#	37805
#	52937
#	64540
#	79280
#	94992
#	109847
#	125130
#	140390
#	158532
#	179020
#	196430
#	215695
#	232205
#	246502
#	256637
#	275567
#
# Disc length: 3894 seconds
#
# Revision: 1
# Processed by: cddbd v1.5.2PL0 Copyright (c) Steve Scherf et al.
# Submitted via: audiograbber 1.82.02
#
DISCID=0b0f3412
DTITLE=Various Artist - The Winners 1995 CD 1
DYEAR=1995
DGENRE=Country
TTITLE0=Aust Family Of Country Music - Bridge of Love
TTITLE1=Clint Beattie - Learning How to Love
TTITLE2=Lee Kernaghan - The Outback Club
TTITLE3=Jane Saunders - Lily White Hands
TTITLE4=John Williamson - Seven Year Itch
TTITLE5=Brent Parlane - Am I Ever Gonna See Your Face Again?
TTITLE6=Troy Cassar Daley - Dream Out Loud
TTITLE7=Dead Ringer Band - Family Man
TTITLE8=Rosemary Rae - Makin Love To Merle
TTITLE9=Paul Jenkins - Nhulabuy, A Dream Of Love
TTITLE10=Slim Dusty - Kokoba Track
TTITLE11=Big Red - Tough Country
TTITLE12=Graeme Connors - Songs From The Homeland
TTITLE13=T C Cassidy - Honey Lately
TTITLE14=Michael Fix - Bush Bash
TTITLE15=Brian Letton - Am I That Easy To Forget
TTITLE16=Stan Coster - Lawson's Loaded Dog
TTITLE17=Col Elliott - Gone Fishin'
EXTD=
EXTT0=
EXTT1=
EXTT2=
EXTT3=
EXTT4=
EXTT5=
EXTT6=
EXTT7=
EXTT8=
EXTT9=
EXTT10=
EXTT11=
EXTT12=
EXTT13=
EXTT14=
EXTT15=
EXTT16=
EXTT17=
PLAYORDER=
